Revolution Z Sex, Lies and Music.S02E02.WEB.Rip.MP4.MC.FREEPLAY.mp4
  
   General
      Complete name : D:My videosMoviesRevolution Z Sex, Lies and Music.S02E02.WEB.Rip.MP4.MC.FREEPLAY.mp4
      Format : MPEG-4
      Format profile : Base Media / Version 2
      Codec ID : mp42
      File size : 936 MiB
      Duration : 49mn 46s
      Overall bit rate : 2 629 Kbps
      Encoded date : UTC 2013-03-08 07:32:32
      Tagged date : UTC 2013-03-08 07:32:32
   Video #1
      ID : 1
      Format : MPEG-4 Visual
      Format profile : AdvancedSimple@L5
      Format settings, BVOP : No
      Format settings, QPel : No
      Format settings, GMC : No warppoints
      Format settings, Matrix : Default (H.263)
      Codec ID : 20
      Duration : 49mn 46s
      Bit rate mode : Variable
      Bit rate : 2 500 Kbps
      Maximum bit rate : 25.5 Mbps
      Width : 1 280 pixels
      Height : 720 pixels
      Display aspect ratio : 16:9
      Frame rate mode : Constant
      Frame rate : 30.000 fps
      Resolution : 24 bits
      Colorimetry : 4:2:0
      Scan type : Progressive
      Bits/(Pixel*Frame) : 0.090
      Stream size : 890 MiB (95%)
      Language : English
      Encoded date : UTC 2013-03-08 07:32:32
      Tagged date : UTC 2013-03-08 07:32:32
   Audio #2
      ID : 2
      Format : AAC
      Format/Info : Advanced Audio Codec
      Format version : Version 4
      Format profile : LC
      Format settings, SBR : No
      Codec ID : 40
      Duration : 49mn 46s
      Bit rate mode : Variable
      Bit rate : 126 Kbps
      Maximum bit rate : 397 Kbps
      Channel(s) : 2 channels
      Channel positions : L R
      Sampling rate : 44.1 KHz
      Resolution : 16 bits
      Stream size : 44.7 MiB (5%)
      Language : English
      Encoded date : UTC 2013-03-08 07:32:32
      Tagged date : UTC 2013-03-08 07:32:32